PathFileType	4	(X/Y/Z)	Patient4_TMGait_0pt2_01_right_23.trc.trc
DataRate	CameraRate	NumFrames	NumMarkers	Units	OrigDataRate	OrigDataStartFrame	OrigNumFrames
44.728434504792	44.728434504792	6	33	mm	44.728434504792	106	       141
Frame#	Time	Sacral			L.Shoulder			Chest			R.Shoulder			Neck			R.ASIS			L.ASIS			R.Thigh.Superior			R.Thigh.Lateral			R.Thigh.Inferior			R.Patella			L.Thigh.Superior			L.Thigh.Lateral			L.Thigh.Inferior			L.Patella			L.Shank.Superior			L.Shank.Lateral			L.Shank.Inferior			R.Shank.Superior			R.Shank.Lateral			R.Shank.Inferior			R.Heel			R.Midfoot.Superior			R.Midfoot.Lateral			R.Toe			L.Heel			L.Midfoot.Lateral			L.Midfoot.Superior			L.Toe			L.Elbow			L.Wrist			R.Elbow			R.Wrist			
		X1	Y1	Z1	X2	Y2	Z2	X3	Y3	Z3	X4	Y4	Z4	X5	Y5	Z5	X6	Y6	Z6	X7	Y7	Z7	X8	Y8	Z8	X9	Y9	Z9	X10	Y10	Z10	X11	Y11	Z11	X12	Y12	Z12	X13	Y13	Z13	X14	Y14	Z14	X15	Y15	Z15	X16	Y16	Z16	X17	Y17	Z17	X18	Y18	Z18	X19	Y19	Z19	X20	Y20	Z20	X21	Y21	Z21	X22	Y22	Z22	X23	Y23	Z23	X24	Y24	Z24	X25	Y25	Z25	X26	Y26	Z26	X27	Y27	Z27	X28	Y28	Z28	X29	Y29	Z29	X30	Y30	Z30	X31	Y31	Z31	X32	Y32	Z32	X33	Y33	Z33	

106	53.977500000000	840.214820054549	988.682387548740	378.880253487019	1042.266154190287	1417.750331641641	214.413240454342	1129.649893292886	1342.323934781577	381.232365693912	1036.978436225894	1410.605810269325	551.910444098870	1012.769749576645	1477.865528095956	373.487383449322	1064.611865549671	925.385134101936	508.476019758979	1064.437888039579	942.437050095630	234.051757727594	1138.829611614283	745.048071744418	485.353642030822	1088.854611585098	630.783826421796	563.191713102218	1175.154321524726	580.346415719214	486.238843661818	1183.289336192348	467.971725057889	515.653228504873	1125.905667324528	739.574882201657	285.834682656956	1056.027819312008	607.767523905436	233.543622740623	1140.321771461575	544.789046544536	313.329319229817	1145.295333727478	469.472498034166	326.920669412133	1102.096556076067	394.822785222839	321.832382668715	999.190109144124	293.935595315008	268.193050152106	1019.378729920785	181.336471595290	348.192194264209	1100.864669515136	400.698060206639	528.674301378898	977.925898985650	377.091263147378	595.933343673382	951.146677156255	266.788087496011	553.869718322215	741.973532186452	223.287372978238	538.160367175856	907.202251034617	151.432626528964	576.374734956190	798.047752198184	159.058855229312	610.249696588514	964.601179383276	35.863304657757	600.923799197412	865.783181097628	40.019113981562	383.829598782551	943.731293330618	36.459218513645	307.488156834285	1027.045293326546	95.574963497615	339.177738010628	1155.723548917874	40.142053131598	315.391728833694	1109.105570359540	1077.095053123802	80.039361864371	1258.935008342018	863.372451313663	105.576819072588	988.836564703411	1055.287974423683	651.837803484805	1050.798762118357	802.172473148274	657.438388903188	
107	53.999857142857	839.060084258103	989.342065790358	376.351268505383	1044.078713847018	1418.784593330642	214.553043098056	1128.679630411934	1343.127285411876	382.636260495269	1033.286488308038	1411.294605638199	551.909834161934	1012.089265951078	1478.598233674959	373.387709060631	1062.738994874957	926.623990791826	507.748572633503	1064.467363194734	943.292438352361	233.159432569206	1140.134388261840	749.436827576494	483.662875856391	1093.600967505351	634.310689033126	562.291463470426	1180.450880960023	585.626616674076	484.726616943294	1191.799824905903	473.599783648594	514.465466973120	1124.039722793817	738.981777873857	284.319400710660	1052.675333960751	607.888266578338	232.247107014028	1136.243810742646	544.231718353608	312.030679633509	1140.631974716471	469.220571207969	325.860631637478	1097.375953788337	394.779821513663	320.889331681317	994.545741973126	293.753771328733	267.280653398974	1014.682204769613	181.339808623975	347.710046794906	1110.974815791183	404.495332576854	528.096914146079	988.763848051098	377.913856065066	595.088229401239	965.370610157484	266.814605945297	553.598730542726	758.092980565934	216.621576974478	537.523411495814	925.149630535470	151.276908351916	576.799369889934	816.028321843710	155.477321099908	610.521439565298	986.149400510406	37.269720573716	602.749368237840	861.192021991915	39.967585283376	383.754106115866	939.177208855817	36.390119451788	307.371202825382	1022.473939507921	95.534329225124	338.995225231624	1151.192273025317	40.153142795250	315.371894943849	1121.155247428377	1081.774507112430	78.125851273544	1283.440695225897	877.251620944006	104.172507665686	965.706849467040	1059.895575028801	650.657832367303	1009.560296363343	802.857816409694	655.814591858086	
108	54.022214285714	838.091230238858	990.661316253010	374.075382037519	1046.002908214587	1420.386278423864	215.004598114193	1127.746894238033	1344.575058712567	384.357214728194	1029.572390905800	1412.753060692308	552.061716269660	1011.391017461522	1479.895053150997	373.499939413947	1060.846554398043	928.407710914417	507.446495953345	1064.720060792047	944.653885703904	232.742339869786	1140.504140070419	753.843059728789	482.677675344550	1096.690125309202	638.068239896087	561.897112208597	1183.918166316125	590.857585567125	483.869930459771	1198.349086142787	479.654800463339	513.844784041762	1121.805993866483	738.607424208219	283.181293735147	1048.668911144545	608.448943717769	231.109287362328	1131.305337954150	543.895128841630	310.798148254649	1134.952808275016	469.295317547640	324.805914510251	1091.857233385836	395.122534253992	319.906219555326	989.315072623629	293.740035576696	266.362125533149	1009.710750555110	181.541609000677	347.206617202483	1119.911903973606	408.445900496927	528.122053947049	999.150285772922	377.453779665229	595.020791819503	980.514105611879	265.507840401027	554.032027168788	776.200018401480	205.988251334075	537.814420260435	945.549760618489	149.555438964891	577.912261689371	836.734787076904	148.839656116983	611.610222330394	1011.510757925059	38.691046018697	605.046497116737	856.595790205848	39.922277746647	383.689062868276	934.616191168668	36.331771341781	307.265293280566	1017.897064615082	95.513751662395	338.797593945550	1146.654206638779	40.173528852616	315.356907106706	1132.667670532381	1087.417871014055	76.452038931067	1306.925171184953	892.894574932533	102.895585759699	943.299204104272	1066.185332910687	649.009756497076	970.445193303520	806.722898862340	653.160015312156	
109	54.044571428571	837.315133752267	992.511634424553	372.020325500489	1048.034914708639	1422.426443054183	215.744585927202	1126.842578345661	1346.547459961683	386.371847039313	1025.831840194765	1414.853903586975	552.347761555347	1010.684931937246	1481.646254712831	373.794564594854	1058.925394113502	930.615761307320	507.587518090324	1065.218470665812	946.414343886108	232.812989487485	1139.997884232711	758.086546515170	482.432440119747	1098.165659008744	641.837311071544	562.036976132052	1185.644475864028	595.798874398256	483.725066293512	1202.967176120514	485.884258802244	513.840198535152	1119.262405704021	738.400204868511	282.442188765632	1044.116223154927	609.392142471983	230.128541177768	1125.603260581186	543.742190326718	309.658720439010	1128.359575822032	469.653788387501	323.784949535458	1085.636652166146	395.797918199328	318.904740319880	983.579485968337	293.865691720972	265.451717247008	1004.498777853259	181.909496514111	346.695727096259	1127.674517761298	412.394815808139	528.764425950096	1009.148079855007	375.753650501093	595.777714850312	996.473173816020	263.054069990772	555.199102818192	796.311836775825	192.079975042232	539.091722141825	968.123417281687	146.535144697261	579.721139077917	859.976207734605	139.662505718458	613.515708745620	1040.077276024745	40.191076837158	607.738671597594	851.999416223858	39.878530785368	383.631424479441	930.050357166292	36.279572007290	307.169296770773	1013.315347777654	95.508998890146	338.593586369086	1142.111299300856	40.203586147755	315.348155715571	1143.627158801221	1093.816996983651	75.022284304106	1329.225918685319	909.999945400231	101.781815551322	921.947603424922	1073.808288126381	646.873641569430	933.992262568769	813.101404638254	649.590814859796	
110	54.066928571429	836.730159148032	994.729863087977	370.169864023681	1050.158580093969	1424.744698478783	216.750336142116	1125.955772282362	1348.887236789725	388.651840305689	1022.069501510551	1417.425565350448	552.755599778306	1009.981639816479	1483.710591808382	374.248811188527	1056.977397677670	933.092921234988	508.174724736627	1065.963644518725	948.439423175275	233.367247793932	1138.701656067249	761.989685823900	482.925949014516	1098.130498490682	645.408130953906	562.726663969687	1185.775613001797	600.230727545417	484.322517609406	1205.743955536867	492.035103321378	514.468627790638	1116.486408322963	738.301702233219	282.110104029454	1039.157701043792	610.637250143736	229.303070349450	1119.284529764776	543.725643957322	308.638227212443	1121.013014506691	470.233364193308	322.825987009807	1078.856580506310	396.732868092300	317.910758508500	977.452372554933	294.096368600611	264.564992648751	999.097650263238	182.402812251870	346.190992645206	1134.284804090370	416.203181351466	530.000253905857	1018.806506998715	372.943531825293	597.340022301681	1013.068194095844	259.732271327823	557.060067998270	818.315504823115	175.783001851058	541.309749758241	992.452042352811	142.606409328432	582.155217423301	885.412357432702	128.639583750941	616.149047627646	1071.055001729856	41.910754462303	610.696740966954	847.407991665275	39.834972337707	383.576726125118	925.482324789354	36.229696980667	307.082061711997	1008.730813727489	95.515205087249	338.391615419448	1137.565675295692	40.241745583435	315.346456931130	1154.019923861295	1100.722129330650	73.856517996809	1350.203055932861	928.196137678086	100.876614013731	901.965114708485	1082.338562985517	644.296206191869	900.654138653159	821.257481619433	645.262378307819	
111	54.089285714286	836.329597674717	997.133223958466	368.525779215535	1052.345568823726	1427.166476696827	218.001418945205	1125.077543277846	1351.415934550404	391.165347057034	1018.303582832678	1420.269135967456	553.280507092474	1009.291823045826	1485.929378464974	374.849187909474	1055.016995969775	935.663112744573	509.194416098602	1066.938238746311	950.580701879386	234.383833425666	1136.723774324077	765.388176281248	484.126725572065	1096.730846621831	648.592186728098	563.961877765182	1184.500661635975	603.967573194904	485.665164048185	1206.814689433149	497.869124452379	515.715304408045	1113.571341113604	738.253302054424	282.182087769114	1033.960725735687	612.087741512195	228.633398310386	1112.539048790672	543.792783445429	307.761954408109	1113.125193685861	470.956783821150	321.956939818926	1071.697372275966	397.840129803670	316.953795664972	971.071962029579	294.395662691478	263.718907177329	993.572773081117	182.975697651586	345.705295523111	1139.778653910876	419.750495225053	531.770261868990	1028.139817891605	369.217605587255	599.624580212125	1030.042471858436	255.869047845977	559.511328966809	841.943994521924	158.075419552684	544.324880062453	1017.995164791677	138.219614407642	585.075161774880	912.554274798084	116.550522469021	619.343166007506	1103.521845594493	44.027004602916	613.753415083819	842.826219047641	39.793347744263	383.519581051836	920.915052985013	36.179561040414	307.002505473840	1004.146628910608	95.527306767909	338.198901506710	1133.019494307053	40.284488042522	315.351883137077	1163.828056542333	1107.861172900550	72.988453648361	1369.737952037644	947.062631556702	100.233646787898	883.627804971843	1091.303890950475	641.385488657402	870.787183655351	830.433571508136	640.372100721897	
